HIERARCHY
ROOT Hips
{
   OFFSET 0.00000 0.00000 0.00000
   CHANNELS 6 Xposition Yposition Zposition Zrotation Xrotation Yrotation
   JOINT Spine
   {
      OFFSET 0.000000 11.890501 0.000000
      CHANNELS 3 Zrotation Xrotation Yrotation
      JOINT Spine1
      {
         OFFSET -0.000000 25.657401 0.127660
         CHANNELS 3 Zrotation Xrotation Yrotation
         JOINT HEad
         {
            OFFSET 0.000000 8.734161 0.011340
            CHANNELS 3 Zrotation Xrotation Yrotation
            End Site
            {
               OFFSET -0.290000 12.774200 2.513950
            }
         }
         JOINT LeftShoulder1
         {
            OFFSET 8.990000 -0.362250 -0.220000
            CHANNELS 3 Zrotation Xrotation Yrotation
            JOINT LeftArm
            {
               OFFSET 10.282700 -0.003380 0.322120
               CHANNELS 3 Zrotation Xrotation Yrotation
               JOINT LeftForeArm
               {
                  OFFSET 32.766900 0.099140 -1.424340
                  CHANNELS 3 Zrotation Xrotation Yrotation
                  JOINT LeftHand
                  {
                     OFFSET 27.564301 0.085360 1.022160
                     CHANNELS 3 Zrotation Xrotation Yrotation
                     End Site
                     {
                        OFFSET 16.744301 -0.600000 1.502910
                     }
                  }
               }
            }
         }
         JOINT RightShoulder
         {
            OFFSET -8.990000 -0.362250 -0.220000
            CHANNELS 3 Zrotation Xrotation Yrotation
            JOINT RightArm
            {
               OFFSET -10.282700 -0.003380 0.322120
               CHANNELS 3 Zrotation Xrotation Yrotation
               JOINT RightForeArm
               {
                  OFFSET -32.897098 0.099140 -1.424340
                  CHANNELS 3 Zrotation Xrotation Yrotation
                  JOINT RightHand
                  {
                     OFFSET -27.492101 0.085360 1.022160
                     CHANNELS 3 Zrotation Xrotation Yrotation
                     End Site
                     {
                        OFFSET -16.631201 -0.600000 1.502910
                     }
                  }
               }
            }
         }
      }
   }
   JOINT LeftUpLeg
   {
      OFFSET 8.945800 -8.667070 0.101650
      CHANNELS 3 Zrotation Xrotation Yrotation
      JOINT LeftLeg
      {
         OFFSET 0.000000 -44.422697 1.372700
         CHANNELS 3 Zrotation Xrotation Yrotation
         JOINT LeftFoot
         {
            OFFSET -0.253550 -42.092399 -1.460590
            CHANNELS 3 Zrotation Xrotation Yrotation
            JOINT LeftToes
            {
               OFFSET -0.040000 -4.415090 8.499099
               CHANNELS 3 Zrotation Xrotation Yrotation
               End Site
               {
                  OFFSET 0.080000 -0.047450 9.779790
               }
            }
         }
      }
   }
   JOINT RightUpLeg
   {
      OFFSET -8.945800 -8.667070 0.101650
      CHANNELS 3 Zrotation Xrotation Yrotation
      JOINT RightLeg
      {
         OFFSET 0.000000 -44.422697 1.372700
         CHANNELS 3 Zrotation Xrotation Yrotation
         JOINT RightFoot
         {
            OFFSET 0.253550 -42.092399 -1.460590
            CHANNELS 3 Zrotation Xrotation Yrotation
            JOINT RightToes
            {
               OFFSET 0.040000 -4.415090 8.499099
               CHANNELS 3 Zrotation Xrotation Yrotation
               End Site
               {
                  OFFSET -0.080000 -0.137450 9.779790
               }
            }
         }
      }
   }
}
MOTION
Frames: 13
Frame Time: 0.016670
53.475699 103.447617 19.747218 -5.496658 7.794941 144.497665 -17.745053 0.541221 4.776432 10.401138 34.927979 -28.809308 -3.585932 -19.426197 9.238668 -6.583454 -30.693839 8.925284 -130.177696 -8.639156 -125.541022 -80.975718 43.446523 24.469581 -61.318324 -38.742411 -64.772562 -46.843626 41.964617 85.997730 131.621994 126.957480 163.549563 7.082331 204.170050 78.366770 -17.725765 -20.689398 33.764183 11.564317 -15.200849 -89.174485 -11.489530 -13.578311 127.427889 -12.865939 38.069767 22.465682 35.932082 18.014426 -9.916513 -2.143978 -17.769077 4.381063 5.359209 12.201856 22.831089 -39.625004 34.846724 17.389008 37.288328 -3.708462 -42.802326
53.579106 103.546885 20.355763 -6.552028 14.756362 144.326473 -24.087487 3.814955 7.612346 12.962155 36.652571 -26.336752 -12.749400 -21.094904 7.828893 -2.143011 -33.046443 7.790069 -121.555005 -17.791389 -122.080984 -54.855797 38.417126 -3.575738 -61.287274 -40.489348 -65.139425 -50.595562 43.350879 87.162960 129.605667 127.824873 161.263444 5.195254 204.910279 80.314583 -31.323555 -17.636390 24.223063 6.929579 -13.234403 -83.036092 -18.205222 -11.751139 129.441265 -16.252811 36.819316 23.272584 38.361061 13.450916 -14.947000 -6.394748 -13.264522 6.921030 0.856451 13.876486 21.159670 -28.145190 34.598265 15.805642 25.914597 -3.568225 -41.965106
53.956193 103.282326 21.144340 -9.537299 25.355262 141.091026 -28.699106 6.871119 9.820027 11.146740 38.622025 -26.492806 -22.636717 -23.167703 6.973511 -1.247592 -32.637967 4.742143 -109.596341 -31.733875 -112.349488 -36.771160 31.182761 -25.247798 -63.493029 -42.226876 -66.242849 -54.258329 43.133953 88.556620 129.809740 126.720418 158.899174 5.186565 206.742204 84.312600 -9.957389 -24.402777 44.234074 0.758258 -9.748072 -73.769984 -25.822959 -12.060849 126.934134 -18.720510 35.326787 23.621168 36.880266 10.901476 -13.705398 -13.314815 -8.077819 10.473338 -3.458992 15.325473 18.961741 -18.531784 34.797492 14.633159 13.561645 -3.336885 -40.574107
54.463643 102.933358 21.728277 -11.284647 34.620006 136.592582 -33.534456 8.801189 14.546090 7.436970 40.740193 -23.197607 -32.392254 -25.154157 6.531084 -2.623957 -35.258389 -1.057244 -96.550591 -43.237744 -99.637338 -25.781136 17.389156 -34.770727 -64.239241 -36.803030 -53.265100 -60.764033 42.432089 92.115831 131.158880 125.928621 155.245268 2.134958 208.933465 84.318296 -21.259724 -27.861527 39.211276 -2.992140 -7.267930 -63.016384 -32.805723 -11.080644 121.152065 -23.188183 33.129460 23.387871 25.790765 3.889420 -20.195092 -18.691181 -4.819501 12.751860 -6.204102 16.164799 15.743398 -9.758820 36.066110 13.430600 1.034253 -2.771753 -39.718817
55.001334 102.604197 22.317843 -10.794600 41.490145 129.884995 -38.562435 9.642066 17.804871 4.000876 41.274816 -19.043742 -40.730935 -27.965021 6.318223 -5.609954 -37.590049 -7.573712 -79.248629 -54.399516 -85.233528 -21.478175 3.425812 -39.189071 -70.885206 -46.794330 -69.355728 -66.322189 41.963432 96.932897 133.984338 123.999093 150.652759 0.341059 208.671022 84.583505 -12.461683 -23.840473 41.036606 -3.130646 -5.921497 -51.366403 -38.458927 -7.484697 113.803499 -30.003051 30.636633 23.998927 33.385384 2.929711 -8.896402 -24.423746 -1.553081 14.783403 -4.591551 13.099763 11.926420 -3.513323 36.287320 12.583933 -11.527858 -3.906568 -38.222866
55.551514 102.233227 22.833640 -9.070081 45.584317 123.483181 -45.181490 9.691053 18.729473 3.186102 39.862476 -13.449368 -45.776905 -30.592107 5.986173 -10.270319 -40.293536 -12.932810 -60.984867 -63.685674 -68.344362 -25.523360 -14.467357 -36.510209 -71.529081 -42.775610 -45.680858 -72.029549 39.740735 101.212830 136.788909 119.184588 146.222069 3.388183 208.446513 83.714548 -20.790729 -23.504184 37.927822 -1.862268 -5.522764 -40.679169 -39.232566 -3.381224 104.935120 -27.647209 28.108744 24.033673 18.924496 -9.509059 -14.259966 -27.851666 0.316352 16.753412 -3.586985 10.433231 8.411340 2.742700 36.887973 11.457105 -23.892770 -5.290793 -37.068738
56.163415 101.544283 23.517880 -6.272559 50.310463 119.858591 -49.712883 9.153989 17.499971 3.645782 38.460092 -8.466939 -49.114022 -32.266524 5.830192 -15.580818 -43.496014 -16.551015 -40.639315 -66.310509 -53.026556 -33.163321 -31.145560 -38.200292 -71.041706 -58.249315 -56.506459 -76.863964 39.493991 104.046287 140.755200 113.774238 142.340295 6.704551 207.287704 85.502248 -14.435400 -19.340722 40.714717 0.269718 -5.799832 -29.759158 -39.805871 1.828663 98.170159 -25.757787 25.542505 25.169795 10.451592 -13.260875 -11.955592 -31.790685 3.500697 19.030580 -3.439833 9.806490 5.409806 8.687701 37.357173 9.941253 -35.972564 -7.414999 -36.508188
56.853026 100.426129 24.389841 -4.787520 52.642440 117.592211 -53.902907 10.205382 15.386442 2.564844 37.297238 -4.976428 -50.289310 -31.404069 5.656409 -23.595213 -46.597955 -20.370189 -24.642318 -61.535858 -37.831772 -39.901648 -47.129767 -44.212217 -75.725310 -59.424428 -38.481252 -79.213023 37.846331 106.265640 144.276777 109.346329 139.162468 7.921543 204.086339 84.068195 -18.607525 -19.907713 39.613496 5.336055 -8.488470 -19.519728 -38.713557 7.798684 91.929060 -24.769896 23.243605 26.225958 7.988331 -14.149182 -12.072827 -35.392961 4.640948 21.247825 -1.931958 8.890151 3.247628 16.176205 36.930966 9.465519 -47.069289 -9.810876 -37.281761
57.546820 98.697976 25.368838 -4.466495 52.411887 119.216376 -57.920393 11.032973 12.236083 4.197548 36.265972 -1.577992 -51.077019 -29.248755 5.818759 -28.434209 -48.686702 -25.096174 -9.200971 -50.266982 -28.435746 -45.611587 -58.137860 -54.433893 -79.302246 -69.361138 -49.095745 -80.935296 38.393668 107.931906 147.573395 105.653587 136.294635 8.435763 200.142998 82.988936 -14.696368 -18.046739 36.888684 11.288738 -12.795774 -8.264984 -33.312158 13.521603 86.400629 -23.899653 19.041022 28.634894 15.424034 -15.888717 -9.357591 -35.947900 6.367622 25.785778 1.714039 8.393792 4.663895 -5.071361 36.714797 12.152210 -26.109252 -12.831461 -38.532782
58.077468 96.790646 26.234448 -5.459586 53.217207 123.507688 -52.283899 10.524151 11.058673 -0.370083 39.469194 -0.105105 -50.702533 -23.790995 6.394019 -35.027215 -46.244540 -30.828462 -0.003804 -31.823569 -18.110199 -52.936350 -65.518009 -67.601948 -81.787240 -63.842687 -47.078004 -81.617141 36.383356 106.234543 151.681767 101.358108 135.618870 5.507639 195.189185 76.402305 -17.725212 -17.418591 28.172720 16.995621 -15.491709 -0.795270 -28.198789 14.515513 77.263216 -23.044145 16.479049 27.791556 23.700664 -12.838942 -7.446528 -37.458755 8.520875 29.358595 6.913039 8.129266 5.797708 -25.514715 37.032008 14.777977 -4.811323 -14.769024 -40.463813
58.405065 94.934844 26.598227 -0.852103 53.420661 122.475564 -45.827933 13.183641 9.019496 -1.722583 40.739374 1.434327 -47.460153 -22.930907 6.936174 -31.258115 -53.178948 -33.912531 -1.197269 -11.682854 -7.299219 -59.566462 -70.746813 -80.058232 -82.863350 -67.890578 -54.031396 -76.505379 36.843379 101.371735 160.860900 92.636182 129.331695 3.488014 190.692666 73.422812 -16.029329 -16.617027 27.463333 24.361010 -15.084792 4.915130 -20.449243 12.193003 69.681986 -22.816716 14.212581 27.329834 22.610826 -9.684706 -9.308913 -37.715372 10.771575 30.517958 11.959869 8.481625 4.318420 -21.949974 36.524218 14.761227 -9.652506 -15.428484 -43.504343
58.568405 93.449420 26.160113 12.599098 59.626199 112.746984 -37.989731 19.647268 8.897785 -5.785960 41.533609 2.690691 -45.835060 -20.809980 7.396482 -31.821926 -59.809221 -35.461666 -7.622765 1.328487 1.027030 -70.477915 -71.419265 -90.141066 -62.575154 -61.455590 -50.766703 -72.276194 35.112305 96.867724 168.245468 89.043407 123.148939 5.001428 189.617704 76.789303 -28.421944 -18.778524 47.374264 33.362069 -10.770223 11.279426 -17.315235 13.595625 61.632772 -23.341116 20.536818 26.326001 24.528500 -3.497527 -8.411909 -38.049638 17.738592 31.901228 11.846194 15.341384 0.794010 -19.049854 35.989930 12.562749 -14.389955 -14.376677 -47.127428
58.511676 91.782483 25.049569 26.522442 63.577108 101.198992 -29.777405 21.240017 8.232854 -8.918496 43.109494 4.823003 -45.840630 -17.744275 7.910060 -41.908053 -58.111495 -42.681394 -8.622387 2.342187 1.784459 -79.480111 -70.874981 -96.237400 -73.052111 -65.404136 -45.852863 -73.944045 35.993912 98.617987 171.973331 92.284161 121.944463 3.178468 188.400796 75.149880 -10.913586 -23.229834 31.683099 44.417229 -11.133365 12.707932 -14.678112 14.014476 53.009884 -23.744661 28.760202 24.507192 26.054072 -0.427084 -12.802781 -41.660814 24.952346 33.088889 10.697363 17.636684 -1.273153 -15.350107 33.943199 11.642694 -20.024515 -13.782307 -49.706435
